<?xml version="1.0" standalone="no"?>
<!DOCTYPE svg PUBLIC "-//W3C//DTD SVG 20010904//EN"
 "http://www.w3.org/TR/2001/REC-SVG-20010904/DTD/svg10.dtd">
<svg version="1.0" xmlns="http://www.w3.org/2000/svg"
 width="200.000000pt" height="200.000000pt" viewBox="0 0 200.000000 200.000000"
 preserveAspectRatio="xMidYMid meet">

<g transform="translate(0.000000,200.000000) scale(0.100000,-0.100000)"
fill="#000000" stroke="none">
<path d="M1085 1940 c-45 -100 -14 -228 78 -322 60 -62 125 -90 220 -96 85 -5
139 9 192 52 35 29 30 41 -11 25 -16 -6 -61 -12 -100 -12 -59 0 -82 5 -135 30
-134 64 -205 160 -217 295 l-7 73 -20 -45z"/>
<path d="M782 1862 c-34 -51 -62 -145 -62 -203 0 -221 180 -445 405 -504 111
-28 249 -15 362 35 48 21 139 102 166 149 22 38 15 39 -25 6 -130 -110 -332
-124 -506 -36 -228 115 -332 293 -312 534 3 37 5 67 4 67 -1 0 -16 -21 -32
-48z"/>
<path d="M424 1747 c-106 -140 -130 -322 -70 -512 37 -117 89 -198 191 -300
149 -149 287 -212 485 -222 146 -8 231 8 342 64 96 48 203 142 242 213 l20 35
-35 -26 c-58 -44 -121 -77 -194 -101 -60 -20 -89 -23 -205 -22 -118 0 -145 4
-216 27 -138 46 -311 166 -397 276 -117 148 -163 323 -138 516 7 48 11 89 9
90 -2 2 -17 -16 -34 -38z"/>
<path d="M444 521 c-81 -37 -134 -133 -134 -244 0 -68 20 -111 59 -126 40 -14
137 -21 223 -14 77 6 78 6 86 37 7 26 5 32 -10 34 -23 4 -22 13 2 86 29 86 27
147 -7 187 -50 59 -140 76 -219 40z m137 -82 c25 -25 23 -75 -6 -173 l-17 -58
-65 4 c-72 5 -93 20 -93 68 0 45 30 131 55 156 32 32 96 33 126 3z"/>
<path d="M1792 405 c-35 -52 -67 -95 -72 -95 -4 0 -10 9 -13 20 -4 16 -14 20
-50 20 l-45 0 20 -75 c15 -59 17 -83 9 -105 l-10 -30 44 0 c43 0 44 1 68 53
13 28 48 84 77 122 30 39 71 93 92 120 21 28 38 53 38 58 0 4 -21 7 -47 7
l-48 -1 -63 -94z"/>
<path d="M1174 449 c-18 -5 -45 -22 -62 -37 -56 -52 -83 -211 -43 -251 23 -23
119 -36 191 -26 45 6 51 10 58 38 l8 32 -87 3 c-90 3 -118 15 -106 47 5 11 29
15 109 17 l103 3 8 50 c11 66 -3 102 -48 120 -38 17 -84 18 -131 4z m70 -69
c16 -6 26 -17 26 -30 0 -18 -6 -20 -60 -20 -33 0 -60 4 -60 9 0 11 48 51 61
51 4 0 19 -4 33 -10z"/>
<path d="M200 438 c0 -7 -3 -23 -6 -35 -6 -21 -3 -23 40 -23 39 0 46 3 46 19
0 11 3 26 6 35 5 13 -2 16 -40 16 -30 0 -46 -4 -46 -12z"/>
<path d="M765 428 c-40 -175 -44 -239 -15 -268 17 -17 33 -20 125 -20 58 0
105 2 105 5 0 2 14 68 30 145 17 77 30 145 30 150 0 6 -17 10 -38 10 l-37 0
-26 -117 -25 -118 -46 -3 c-39 -3 -47 0 -53 17 -5 18 14 143 31 204 5 14 -1
17 -35 17 -34 0 -41 -4 -46 -22z"/>
<path d="M1405 313 c-15 -76 -30 -146 -33 -156 -4 -14 3 -17 36 -17 l40 0 16
73 c9 39 21 93 27 120 l11 47 94 0 c86 0 94 2 94 19 0 42 -25 51 -144 51
l-112 0 -29 -137z"/>
<path d="M180 347 c0 -2 -9 -45 -20 -97 -27 -126 -46 -170 -75 -170 -25 0 -35
-17 -35 -57 0 -25 2 -25 50 -21 54 5 86 27 102 68 5 14 21 75 34 135 14 61 27
118 30 128 5 14 -1 17 -40 17 -25 0 -46 -1 -46 -3z"/>
</g>
</svg>
